<svg width="596" height="360" viewBox="0 0 596 360" fill="none" xmlns="http://www.w3.org/2000/svg">
<g clip-path="url(#clip0_3021_4549)">
<mask id="mask0_3021_4549" style="mask-type:alpha" maskUnits="userSpaceOnUse" x="104" y="10" width="388" height="337">
<path d="M298 12.084L490.413 345.353H105.587L298 12.084Z" fill="#D9D9D9" stroke="#25374B" stroke-width="3" stroke-linejoin="round"/>
</mask>
<g mask="url(#mask0_3021_4549)">
<rect x="78.8672" y="10.3984" width="438.267" height="66.9934" fill="#B59FFC" stroke="#25374B" stroke-width="3"/>
<rect x="78.8672" y="77.3926" width="438.267" height="66.9934" fill="#A5CDF2" stroke="#25374B" stroke-width="3"/>
<rect x="78.8672" y="144.387" width="438.267" height="66.9934" fill="#ACE3D9" stroke="#25374B" stroke-width="3"/>
<rect x="78.8672" y="211.381" width="438.267" height="66.9934" fill="#FDDFB3" stroke="#25374B" stroke-width="3"/>
<rect x="78.8672" y="278.375" width="438.267" height="66.9934" fill="#FFA8B2" stroke="#25374B" stroke-width="3"/>
<path d="M297.999 12.084L490.412 345.353H105.586L297.999 12.084Z" stroke="#25374B" stroke-width="3" stroke-linejoin="round"/>
<path d="M256.427 305.505C257.131 305.505 257.563 305.296 257.867 305.008L257.515 304.112C257.355 304.288 257.035 304.432 256.699 304.432C256.171 304.432 255.915 304.016 255.915 303.44V298.64H257.483V297.584H255.915V295.472H254.715V297.584H253.435V298.64H254.715V303.696C254.715 304.848 255.291 305.505 256.427 305.505ZM262.666 305.505C263.93 305.505 264.97 305.088 265.738 304.32L265.162 303.536C264.554 304.16 263.658 304.512 262.778 304.512C261.114 304.512 260.09 303.296 259.994 301.84H266.25V301.536C266.25 299.216 264.874 297.392 262.538 297.392C260.33 297.392 258.73 299.2 258.73 301.44C258.73 303.856 260.378 305.505 262.666 305.505ZM265.066 300.96H259.994C260.058 299.776 260.874 298.384 262.522 298.384C264.282 298.384 265.05 299.808 265.066 300.96ZM269.394 305.312V299.84C269.746 299.216 270.754 298.608 271.49 298.608C271.682 298.608 271.826 298.624 271.97 298.656V297.424C270.914 297.424 270.018 298.016 269.394 298.832V297.584H268.194V305.312H269.394ZM279.507 305.312V300C279.507 298.128 278.147 297.392 276.515 297.392C275.251 297.392 274.259 297.808 273.427 298.672L273.987 299.504C274.675 298.768 275.427 298.432 276.355 298.432C277.475 298.432 278.307 299.024 278.307 300.064V301.456C277.683 300.736 276.803 300.4 275.747 300.4C274.435 300.4 273.043 301.216 273.043 302.944C273.043 304.624 274.435 305.505 275.747 305.505C276.787 305.505 277.667 305.136 278.307 304.432V305.312H279.507ZM276.179 304.64C275.059 304.64 274.275 303.936 274.275 302.961C274.275 301.968 275.059 301.264 276.179 301.264C277.027 301.264 277.843 301.584 278.307 302.224V303.68C277.843 304.32 277.027 304.64 276.179 304.64ZM283.112 303.216V299.712C283.528 299.04 284.472 298.464 285.416 298.464C286.984 298.464 287.912 299.744 287.912 301.456C287.912 303.168 286.984 304.432 285.416 304.432C284.472 304.432 283.528 303.888 283.112 303.216ZM283.112 305.312V304.16C283.688 304.944 284.632 305.505 285.72 305.505C287.736 305.505 289.16 303.968 289.16 301.456C289.16 298.992 287.736 297.392 285.72 297.392C284.664 297.392 283.736 297.904 283.112 298.752V294.64H281.912V305.312H283.112ZM290.684 308.337C290.908 308.401 291.308 308.449 291.564 308.449C292.588 308.433 293.372 308.001 293.836 306.881L297.708 297.584H296.396L293.836 303.92L291.26 297.584H289.964L293.196 305.393L292.684 306.561C292.412 307.201 292.06 307.377 291.532 307.377C291.34 307.377 291.052 307.329 290.876 307.249L290.684 308.337ZM300.911 305.505C301.615 305.505 302.047 305.296 302.351 305.008L301.999 304.112C301.839 304.288 301.519 304.432 301.183 304.432C300.655 304.432 300.399 304.016 300.399 303.44V298.64H301.967V297.584H300.399V295.472H299.199V297.584H297.919V298.64H299.199V303.696C299.199 304.848 299.775 305.505 300.911 305.505ZM307.15 305.505C308.414 305.505 309.454 305.088 310.222 304.32L309.646 303.536C309.038 304.16 308.142 304.512 307.262 304.512C305.598 304.512 304.574 303.296 304.478 301.84H310.734V301.536C310.734 299.216 309.358 297.392 307.022 297.392C304.814 297.392 303.214 299.2 303.214 301.44C303.214 303.856 304.862 305.505 307.15 305.505ZM309.55 300.96H304.478C304.542 299.776 305.358 298.384 307.006 298.384C308.766 298.384 309.534 299.808 309.55 300.96ZM319.283 307.937C318.259 305.921 317.619 304.08 317.619 301.424C317.619 298.752 318.259 296.928 319.283 294.896L318.563 294.352C317.123 296.336 316.307 298.848 316.307 301.424C316.307 304 317.123 306.529 318.563 308.497L319.283 307.937ZM324.788 305.312V295.824H328.18V294.64H320.084V295.824H323.46V305.312H324.788ZM334.809 305.312C336.761 305.312 337.897 304.144 337.897 302.432C337.897 301.152 336.953 299.984 335.817 299.808C336.793 299.6 337.689 298.704 337.689 297.36C337.689 295.76 336.553 294.64 334.697 294.64H329.945V305.312H334.809ZM334.473 299.264H331.273V295.824H334.473C335.673 295.824 336.313 296.592 336.313 297.552C336.313 298.528 335.673 299.264 334.473 299.264ZM334.537 304.128H331.273V300.448H334.537C335.849 300.448 336.521 301.312 336.521 302.288C336.521 303.424 335.785 304.128 334.537 304.128ZM339.751 308.497C341.207 306.529 342.023 304 342.023 301.424C342.023 298.848 341.207 296.336 339.751 294.352L339.031 294.896C340.071 296.928 340.711 298.752 340.711 301.424C340.711 304.08 340.071 305.921 339.031 307.937L339.751 308.497ZM252.29 325.312C252.109 325.28 251.261 325.264 249.746 325.264C248.253 325.264 247.416 325.28 247.234 325.312H247.042V324.576H247.458C248.077 324.576 248.477 324.56 248.658 324.528C248.744 324.518 248.872 324.454 249.042 324.336V316.064C249.021 316.064 248.978 316.08 248.914 316.112C248.424 316.304 247.874 316.406 247.266 316.416H246.962V315.68H247.266C248.162 315.648 248.909 315.446 249.506 315.072C249.698 314.966 249.864 314.843 250.002 314.704C250.024 314.672 250.088 314.656 250.194 314.656C250.301 314.656 250.392 314.688 250.466 314.752V319.536L250.482 324.336C250.642 324.496 250.989 324.576 251.522 324.576H252.05H252.466V325.312H252.29ZM255.17 315.952C255.768 315.088 256.584 314.656 257.618 314.656C258.397 314.656 259.08 314.923 259.666 315.456C259.954 315.734 260.2 316.096 260.402 316.544C260.797 317.43 260.994 318.646 260.994 320.192C260.994 321.846 260.765 323.11 260.306 323.984C260.008 324.603 259.57 325.051 258.994 325.329C258.546 325.553 258.093 325.665 257.634 325.665C256.408 325.665 255.512 325.104 254.946 323.984C254.488 323.11 254.258 321.846 254.258 320.192C254.258 319.2 254.322 318.384 254.45 317.744C254.589 317.094 254.829 316.496 255.17 315.952ZM258.77 315.76C258.461 315.419 258.082 315.248 257.634 315.248C257.186 315.248 256.802 315.419 256.482 315.76C256.248 316.006 256.088 316.304 256.002 316.656C255.917 317.008 255.864 317.616 255.842 318.48C255.842 318.544 255.837 318.752 255.826 319.104C255.826 319.456 255.826 319.75 255.826 319.984C255.826 321.008 255.837 321.723 255.858 322.128C255.901 322.875 255.965 323.414 256.05 323.744C256.136 324.064 256.296 324.342 256.53 324.576C256.818 324.896 257.186 325.056 257.634 325.056C258.072 325.056 258.434 324.896 258.722 324.576C258.957 324.342 259.117 324.064 259.202 323.744C259.288 323.414 259.352 322.875 259.394 322.128C259.416 321.723 259.426 321.008 259.426 319.984C259.426 319.75 259.421 319.456 259.41 319.104C259.41 318.752 259.41 318.544 259.41 318.48C259.389 317.616 259.336 317.008 259.25 316.656C259.165 316.304 259.005 316.006 258.77 315.76ZM263.17 315.952C263.768 315.088 264.584 314.656 265.618 314.656C266.397 314.656 267.08 314.923 267.666 315.456C267.954 315.734 268.2 316.096 268.402 316.544C268.797 317.43 268.994 318.646 268.994 320.192C268.994 321.846 268.765 323.11 268.306 323.984C268.008 324.603 267.57 325.051 266.994 325.329C266.546 325.553 266.093 325.665 265.634 325.665C264.408 325.665 263.512 325.104 262.946 323.984C262.488 323.11 262.258 321.846 262.258 320.192C262.258 319.2 262.322 318.384 262.45 317.744C262.589 317.094 262.829 316.496 263.17 315.952ZM266.77 315.76C266.461 315.419 266.082 315.248 265.634 315.248C265.186 315.248 264.802 315.419 264.482 315.76C264.248 316.006 264.088 316.304 264.002 316.656C263.917 317.008 263.864 317.616 263.842 318.48C263.842 318.544 263.837 318.752 263.826 319.104C263.826 319.456 263.826 319.75 263.826 319.984C263.826 321.008 263.837 321.723 263.858 322.128C263.901 322.875 263.965 323.414 264.05 323.744C264.136 324.064 264.296 324.342 264.53 324.576C264.818 324.896 265.186 325.056 265.634 325.056C266.072 325.056 266.434 324.896 266.722 324.576C266.957 324.342 267.117 324.064 267.202 323.744C267.288 323.414 267.352 322.875 267.394 322.128C267.416 321.723 267.426 321.008 267.426 319.984C267.426 319.75 267.421 319.456 267.41 319.104C267.41 318.752 267.41 318.544 267.41 318.48C267.389 317.616 267.336 317.008 267.25 316.656C267.165 316.304 267.005 316.006 266.77 315.76ZM271.17 315.952C271.768 315.088 272.584 314.656 273.618 314.656C274.397 314.656 275.08 314.923 275.666 315.456C275.954 315.734 276.2 316.096 276.402 316.544C276.797 317.43 276.994 318.646 276.994 320.192C276.994 321.846 276.765 323.11 276.306 323.984C276.008 324.603 275.57 325.051 274.994 325.329C274.546 325.553 274.093 325.665 273.634 325.665C272.408 325.665 271.512 325.104 270.946 323.984C270.488 323.11 270.258 321.846 270.258 320.192C270.258 319.2 270.322 318.384 270.45 317.744C270.589 317.094 270.829 316.496 271.17 315.952ZM274.77 315.76C274.461 315.419 274.082 315.248 273.634 315.248C273.186 315.248 272.802 315.419 272.482 315.76C272.248 316.006 272.088 316.304 272.002 316.656C271.917 317.008 271.864 317.616 271.842 318.48C271.842 318.544 271.837 318.752 271.826 319.104C271.826 319.456 271.826 319.75 271.826 319.984C271.826 321.008 271.837 321.723 271.858 322.128C271.901 322.875 271.965 323.414 272.05 323.744C272.136 324.064 272.296 324.342 272.53 324.576C272.818 324.896 273.186 325.056 273.634 325.056C274.072 325.056 274.434 324.896 274.722 324.576C274.957 324.342 275.117 324.064 275.202 323.744C275.288 323.414 275.352 322.875 275.394 322.128C275.416 321.723 275.426 321.008 275.426 319.984C275.426 319.75 275.421 319.456 275.41 319.104C275.41 318.752 275.41 318.544 275.41 318.48C275.389 317.616 275.336 317.008 275.25 316.656C275.165 316.304 275.005 316.006 274.77 315.76ZM286.063 328.449C287.951 328.449 289.743 327.649 289.743 325.088V317.584H288.543V318.752C287.919 317.904 286.991 317.392 285.951 317.392C283.919 317.392 282.511 318.928 282.511 321.408C282.511 323.904 283.935 325.409 285.951 325.409C287.039 325.409 287.983 324.816 288.543 324.032V325.136C288.543 326.833 287.343 327.457 286.063 327.457C284.959 327.457 284.191 327.169 283.551 326.401L282.943 327.297C283.855 328.193 284.751 328.449 286.063 328.449ZM286.239 324.352C284.687 324.352 283.759 323.104 283.759 321.408C283.759 319.696 284.687 318.464 286.239 318.464C287.199 318.464 288.127 319.04 288.543 319.712V323.088C288.127 323.76 287.199 324.352 286.239 324.352ZM292.739 316.48C293.187 316.48 293.555 316.128 293.555 315.68C293.555 315.232 293.187 314.864 292.739 314.864C292.307 314.864 291.939 315.232 291.939 315.68C291.939 316.128 292.307 316.48 292.739 316.48ZM293.347 325.312V317.584H292.147V325.312H293.347ZM298.845 328.449C300.733 328.449 302.525 327.649 302.525 325.088V317.584H301.325V318.752C300.701 317.904 299.773 317.392 298.733 317.392C296.701 317.392 295.293 318.928 295.293 321.408C295.293 323.904 296.717 325.409 298.733 325.409C299.821 325.409 300.765 324.816 301.325 324.032V325.136C301.325 326.833 300.125 327.457 298.845 327.457C297.741 327.457 296.973 327.169 296.333 326.401L295.725 327.297C296.637 328.193 297.533 328.449 298.845 328.449ZM299.021 324.352C297.469 324.352 296.541 323.104 296.541 321.408C296.541 319.696 297.469 318.464 299.021 318.464C299.981 318.464 300.909 319.04 301.325 319.712V323.088C300.909 323.76 299.981 324.352 299.021 324.352ZM310.96 325.312V320C310.96 318.128 309.6 317.392 307.968 317.392C306.704 317.392 305.712 317.808 304.88 318.672L305.44 319.504C306.128 318.768 306.88 318.432 307.808 318.432C308.928 318.432 309.76 319.024 309.76 320.064V321.456C309.136 320.736 308.256 320.4 307.2 320.4C305.888 320.4 304.496 321.216 304.496 322.944C304.496 324.624 305.888 325.505 307.2 325.505C308.24 325.505 309.12 325.136 309.76 324.432V325.312H310.96ZM307.632 324.64C306.512 324.64 305.728 323.936 305.728 322.961C305.728 321.968 306.512 321.264 307.632 321.264C308.48 321.264 309.296 321.584 309.76 322.224V323.68C309.296 324.32 308.48 324.64 307.632 324.64ZM314.566 323.216V319.712C314.982 319.04 315.926 318.464 316.87 318.464C318.438 318.464 319.366 319.744 319.366 321.456C319.366 323.168 318.438 324.432 316.87 324.432C315.926 324.432 314.982 323.888 314.566 323.216ZM314.566 325.312V324.16C315.142 324.944 316.086 325.505 317.174 325.505C319.19 325.505 320.614 323.968 320.614 321.456C320.614 318.992 319.19 317.392 317.174 317.392C316.118 317.392 315.19 317.904 314.566 318.752V314.64H313.366V325.312H314.566ZM322.137 328.337C322.361 328.401 322.761 328.449 323.017 328.449C324.041 328.433 324.825 328.001 325.289 326.881L329.161 317.584H327.849L325.289 323.92L322.713 317.584H321.417L324.649 325.393L324.137 326.561C323.865 327.201 323.513 327.377 322.985 327.377C322.793 327.377 322.505 327.329 322.329 327.249L322.137 328.337ZM332.364 325.505C333.068 325.505 333.5 325.296 333.804 325.008L333.452 324.112C333.292 324.288 332.972 324.432 332.636 324.432C332.108 324.432 331.852 324.016 331.852 323.44V318.64H333.42V317.584H331.852V315.472H330.652V317.584H329.372V318.64H330.652V323.696C330.652 324.848 331.228 325.505 332.364 325.505ZM338.604 325.505C339.868 325.505 340.908 325.088 341.676 324.32L341.1 323.536C340.492 324.16 339.596 324.512 338.716 324.512C337.052 324.512 336.028 323.296 335.932 321.84H342.188V321.536C342.188 319.216 340.812 317.392 338.476 317.392C336.268 317.392 334.668 319.2 334.668 321.44C334.668 323.856 336.316 325.505 338.604 325.505ZM341.004 320.96H335.932C335.996 319.776 336.812 318.384 338.46 318.384C340.22 318.384 340.988 319.808 341.004 320.96ZM346.579 325.505C348.579 325.505 349.619 324.464 349.619 323.168C349.619 320.16 344.835 321.28 344.835 319.584C344.835 318.896 345.491 318.368 346.547 318.368C347.539 318.368 348.387 318.784 348.851 319.344L349.411 318.512C348.787 317.888 347.859 317.392 346.547 317.392C344.707 317.392 343.667 318.416 343.667 319.616C343.667 322.48 348.451 321.328 348.451 323.201C348.451 323.968 347.811 324.528 346.627 324.528C345.571 324.528 344.595 324.016 344.083 323.424L343.459 324.288C344.243 325.12 345.315 325.505 346.579 325.505Z" fill="#25374B"/>
<path d="M254.954 241.507C256.842 241.507 258.634 240.707 258.634 238.147V230.643H257.434V231.811C256.81 230.963 255.882 230.451 254.842 230.451C252.81 230.451 251.402 231.987 251.402 234.467C251.402 236.963 252.826 238.467 254.842 238.467C255.93 238.467 256.874 237.875 257.434 237.091V238.195C257.434 239.891 256.234 240.515 254.954 240.515C253.85 240.515 253.082 240.227 252.442 239.459L251.834 240.355C252.746 241.251 253.642 241.507 254.954 241.507ZM255.13 237.411C253.578 237.411 252.65 236.163 252.65 234.467C252.65 232.755 253.578 231.523 255.13 231.523C256.09 231.523 257.018 232.099 257.434 232.771V236.147C257.018 236.819 256.09 237.411 255.13 237.411ZM261.629 229.539C262.077 229.539 262.445 229.187 262.445 228.739C262.445 228.291 262.077 227.923 261.629 227.923C261.197 227.923 260.829 228.291 260.829 228.739C260.829 229.187 261.197 229.539 261.629 229.539ZM262.237 238.371V230.643H261.037V238.371H262.237ZM267.735 241.507C269.623 241.507 271.415 240.707 271.415 238.147V230.643H270.215V231.811C269.591 230.963 268.663 230.451 267.623 230.451C265.591 230.451 264.183 231.987 264.183 234.467C264.183 236.963 265.607 238.467 267.623 238.467C268.711 238.467 269.655 237.875 270.215 237.091V238.195C270.215 239.891 269.015 240.515 267.735 240.515C266.631 240.515 265.863 240.227 265.223 239.459L264.615 240.355C265.527 241.251 266.423 241.507 267.735 241.507ZM267.911 237.411C266.359 237.411 265.431 236.163 265.431 234.467C265.431 232.755 266.359 231.523 267.911 231.523C268.871 231.523 269.799 232.099 270.215 232.771V236.147C269.799 236.819 268.871 237.411 267.911 237.411ZM279.851 238.371V233.059C279.851 231.187 278.491 230.451 276.859 230.451C275.595 230.451 274.603 230.867 273.771 231.731L274.331 232.563C275.019 231.827 275.771 231.491 276.699 231.491C277.819 231.491 278.651 232.083 278.651 233.123V234.515C278.027 233.795 277.147 233.459 276.091 233.459C274.779 233.459 273.387 234.275 273.387 236.003C273.387 237.683 274.779 238.563 276.091 238.563C277.131 238.563 278.011 238.195 278.651 237.491V238.371H279.851ZM276.523 237.699C275.403 237.699 274.619 236.995 274.619 236.019C274.619 235.027 275.403 234.323 276.523 234.323C277.371 234.323 278.187 234.643 278.651 235.283V236.739C278.187 237.379 277.371 237.699 276.523 237.699ZM283.456 236.275V232.771C283.872 232.099 284.816 231.523 285.76 231.523C287.328 231.523 288.256 232.803 288.256 234.515C288.256 236.227 287.328 237.491 285.76 237.491C284.816 237.491 283.872 236.947 283.456 236.275ZM283.456 238.371V237.219C284.032 238.003 284.976 238.563 286.064 238.563C288.08 238.563 289.504 237.027 289.504 234.515C289.504 232.051 288.08 230.451 286.064 230.451C285.008 230.451 284.08 230.963 283.456 231.811V227.699H282.256V238.371H283.456ZM291.027 241.395C291.251 241.459 291.651 241.507 291.907 241.507C292.931 241.491 293.715 241.059 294.179 239.939L298.051 230.643H296.739L294.179 236.979L291.603 230.643H290.307L293.539 238.451L293.027 239.619C292.755 240.259 292.403 240.435 291.875 240.435C291.683 240.435 291.395 240.387 291.219 240.307L291.027 241.395ZM301.255 238.563C301.959 238.563 302.391 238.355 302.695 238.067L302.343 237.171C302.183 237.347 301.863 237.491 301.527 237.491C300.999 237.491 300.743 237.075 300.743 236.499V231.699H302.311V230.643H300.743V228.531H299.543V230.643H298.263V231.699H299.543V236.755C299.543 237.907 300.119 238.563 301.255 238.563ZM307.494 238.563C308.758 238.563 309.798 238.147 310.566 237.379L309.99 236.595C309.382 237.219 308.486 237.571 307.606 237.571C305.942 237.571 304.918 236.355 304.822 234.899H311.078V234.595C311.078 232.275 309.702 230.451 307.366 230.451C305.158 230.451 303.558 232.259 303.558 234.499C303.558 236.915 305.206 238.563 307.494 238.563ZM309.894 234.019H304.822C304.886 232.835 305.702 231.443 307.35 231.443C309.11 231.443 309.878 232.867 309.894 234.019ZM319.627 240.995C318.603 238.979 317.963 237.139 317.963 234.483C317.963 231.811 318.603 229.987 319.627 227.955L318.907 227.411C317.467 229.395 316.651 231.907 316.651 234.483C316.651 237.059 317.467 239.587 318.907 241.555L319.627 240.995ZM326.22 238.579C327.964 238.579 329.42 237.843 330.412 236.739V232.883H325.42V234.067H329.084V236.243C328.556 236.771 327.5 237.395 326.22 237.395C323.884 237.395 322.108 235.571 322.108 233.043C322.108 230.499 323.884 228.707 326.22 228.707C327.5 228.707 328.636 229.315 329.308 230.179L330.364 229.523C329.42 228.355 328.108 227.523 326.22 227.523C323.18 227.523 320.732 229.731 320.732 233.043C320.732 236.355 323.18 238.579 326.22 238.579ZM337.434 238.371C339.386 238.371 340.522 237.203 340.522 235.491C340.522 234.211 339.578 233.043 338.442 232.867C339.418 232.659 340.314 231.763 340.314 230.419C340.314 228.819 339.178 227.699 337.322 227.699H332.57V238.371H337.434ZM337.098 232.323H333.898V228.883H337.098C338.298 228.883 338.938 229.651 338.938 230.611C338.938 231.587 338.298 232.323 337.098 232.323ZM337.162 237.187H333.898V233.507H337.162C338.474 233.507 339.146 234.371 339.146 235.347C339.146 236.483 338.41 237.187 337.162 237.187ZM342.376 241.555C343.832 239.587 344.648 237.059 344.648 234.483C344.648 231.907 343.832 229.395 342.376 227.411L341.656 227.955C342.696 229.987 343.336 231.811 343.336 234.483C343.336 237.139 342.696 238.979 341.656 240.995L342.376 241.555ZM247.712 258.371C247.531 258.339 246.683 258.323 245.168 258.323C243.675 258.323 242.838 258.339 242.656 258.371H242.464V257.635H242.88C243.499 257.635 243.899 257.619 244.08 257.587C244.166 257.576 244.294 257.512 244.464 257.395V249.123C244.443 249.123 244.4 249.139 244.336 249.171C243.846 249.363 243.296 249.464 242.688 249.475H242.384V248.739H242.688C243.584 248.707 244.331 248.504 244.928 248.131C245.12 248.024 245.286 247.902 245.424 247.763C245.446 247.731 245.51 247.715 245.616 247.715C245.723 247.715 245.814 247.747 245.888 247.811V252.595L245.904 257.395C246.064 257.555 246.411 257.635 246.944 257.635H247.472H247.888V258.371H247.712ZM250.592 249.011C251.19 248.147 252.006 247.715 253.04 247.715C253.819 247.715 254.502 247.982 255.088 248.515C255.376 248.792 255.622 249.155 255.824 249.603C256.219 250.488 256.416 251.704 256.416 253.251C256.416 254.904 256.187 256.168 255.728 257.043C255.43 257.662 254.992 258.11 254.416 258.387C253.968 258.611 253.515 258.723 253.056 258.723C251.83 258.723 250.934 258.163 250.368 257.043C249.91 256.168 249.68 254.904 249.68 253.251C249.68 252.259 249.744 251.443 249.872 250.803C250.011 250.152 250.251 249.555 250.592 249.011ZM254.192 248.819C253.883 248.478 253.504 248.307 253.056 248.307C252.608 248.307 252.224 248.478 251.904 248.819C251.67 249.064 251.51 249.363 251.424 249.715C251.339 250.067 251.286 250.675 251.264 251.539C251.264 251.603 251.259 251.811 251.248 252.163C251.248 252.515 251.248 252.808 251.248 253.043C251.248 254.067 251.259 254.782 251.28 255.187C251.323 255.934 251.387 256.472 251.472 256.803C251.558 257.123 251.718 257.4 251.952 257.635C252.24 257.955 252.608 258.115 253.056 258.115C253.494 258.115 253.856 257.955 254.144 257.635C254.379 257.4 254.539 257.123 254.624 256.803C254.71 256.472 254.774 255.934 254.816 255.187C254.838 254.782 254.848 254.067 254.848 253.043C254.848 252.808 254.843 252.515 254.832 252.163C254.832 251.811 254.832 251.603 254.832 251.539C254.811 250.675 254.758 250.067 254.672 249.715C254.587 249.363 254.427 249.064 254.192 248.819ZM258.592 249.011C259.19 248.147 260.006 247.715 261.04 247.715C261.819 247.715 262.502 247.982 263.088 248.515C263.376 248.792 263.622 249.155 263.824 249.603C264.219 250.488 264.416 251.704 264.416 253.251C264.416 254.904 264.187 256.168 263.728 257.043C263.43 257.662 262.992 258.11 262.416 258.387C261.968 258.611 261.515 258.723 261.056 258.723C259.83 258.723 258.934 258.163 258.368 257.043C257.91 256.168 257.68 254.904 257.68 253.251C257.68 252.259 257.744 251.443 257.872 250.803C258.011 250.152 258.251 249.555 258.592 249.011ZM262.192 248.819C261.883 248.478 261.504 248.307 261.056 248.307C260.608 248.307 260.224 248.478 259.904 248.819C259.67 249.064 259.51 249.363 259.424 249.715C259.339 250.067 259.286 250.675 259.264 251.539C259.264 251.603 259.259 251.811 259.248 252.163C259.248 252.515 259.248 252.808 259.248 253.043C259.248 254.067 259.259 254.782 259.28 255.187C259.323 255.934 259.387 256.472 259.472 256.803C259.558 257.123 259.718 257.4 259.952 257.635C260.24 257.955 260.608 258.115 261.056 258.115C261.494 258.115 261.856 257.955 262.144 257.635C262.379 257.4 262.539 257.123 262.624 256.803C262.71 256.472 262.774 255.934 262.816 255.187C262.838 254.782 262.848 254.067 262.848 253.043C262.848 252.808 262.843 252.515 262.832 252.163C262.832 251.811 262.832 251.603 262.832 251.539C262.811 250.675 262.758 250.067 262.672 249.715C262.587 249.363 262.427 249.064 262.192 248.819ZM266.592 249.011C267.19 248.147 268.006 247.715 269.04 247.715C269.819 247.715 270.502 247.982 271.088 248.515C271.376 248.792 271.622 249.155 271.824 249.603C272.219 250.488 272.416 251.704 272.416 253.251C272.416 254.904 272.187 256.168 271.728 257.043C271.43 257.662 270.992 258.11 270.416 258.387C269.968 258.611 269.515 258.723 269.056 258.723C267.83 258.723 266.934 258.163 266.368 257.043C265.91 256.168 265.68 254.904 265.68 253.251C265.68 252.259 265.744 251.443 265.872 250.803C266.011 250.152 266.251 249.555 266.592 249.011ZM270.192 248.819C269.883 248.478 269.504 248.307 269.056 248.307C268.608 248.307 268.224 248.478 267.904 248.819C267.67 249.064 267.51 249.363 267.424 249.715C267.339 250.067 267.286 250.675 267.264 251.539C267.264 251.603 267.259 251.811 267.248 252.163C267.248 252.515 267.248 252.808 267.248 253.043C267.248 254.067 267.259 254.782 267.28 255.187C267.323 255.934 267.387 256.472 267.472 256.803C267.558 257.123 267.718 257.4 267.952 257.635C268.24 257.955 268.608 258.115 269.056 258.115C269.494 258.115 269.856 257.955 270.144 257.635C270.379 257.4 270.539 257.123 270.624 256.803C270.71 256.472 270.774 255.934 270.816 255.187C270.838 254.782 270.848 254.067 270.848 253.043C270.848 252.808 270.843 252.515 270.832 252.163C270.832 251.811 270.832 251.603 270.832 251.539C270.811 250.675 270.758 250.067 270.672 249.715C270.587 249.363 270.427 249.064 270.192 248.819ZM288.909 258.371V252.787C288.909 251.235 288.157 250.451 286.749 250.451C285.629 250.451 284.589 251.187 284.157 251.891C283.933 251.091 283.261 250.451 282.077 250.451C280.941 250.451 279.901 251.267 279.581 251.763V250.643H278.381V258.371H279.581V252.723C279.997 252.099 280.829 251.523 281.613 251.523C282.621 251.523 283.037 252.147 283.037 253.123V258.371H284.237V252.707C284.637 252.099 285.485 251.523 286.285 251.523C287.277 251.523 287.709 252.147 287.709 253.123V258.371H288.909ZM294.791 258.563C296.055 258.563 297.095 258.147 297.863 257.379L297.287 256.595C296.679 257.219 295.783 257.571 294.903 257.571C293.239 257.571 292.215 256.355 292.119 254.899H298.375V254.595C298.375 252.275 296.999 250.451 294.663 250.451C292.455 250.451 290.855 252.259 290.855 254.499C290.855 256.915 292.503 258.563 294.791 258.563ZM297.191 254.019H292.119C292.183 252.835 292.999 251.443 294.647 251.443C296.407 251.443 297.175 252.867 297.191 254.019ZM303.423 261.507C305.311 261.507 307.103 260.707 307.103 258.147V250.643H305.903V251.811C305.279 250.963 304.351 250.451 303.311 250.451C301.279 250.451 299.871 251.987 299.871 254.467C299.871 256.963 301.295 258.467 303.311 258.467C304.399 258.467 305.343 257.875 305.903 257.091V258.195C305.903 259.891 304.703 260.515 303.423 260.515C302.319 260.515 301.551 260.227 300.911 259.459L300.303 260.355C301.215 261.251 302.111 261.507 303.423 261.507ZM303.599 257.411C302.047 257.411 301.119 256.163 301.119 254.467C301.119 252.755 302.047 251.523 303.599 251.523C304.559 251.523 305.487 252.099 305.903 252.771V256.147C305.487 256.819 304.559 257.411 303.599 257.411ZM315.538 258.371V253.059C315.538 251.187 314.178 250.451 312.546 250.451C311.282 250.451 310.29 250.867 309.458 251.731L310.018 252.563C310.706 251.827 311.458 251.491 312.386 251.491C313.506 251.491 314.338 252.083 314.338 253.123V254.515C313.714 253.795 312.834 253.459 311.778 253.459C310.466 253.459 309.074 254.275 309.074 256.003C309.074 257.683 310.466 258.563 311.778 258.563C312.818 258.563 313.698 258.195 314.338 257.491V258.371H315.538ZM312.21 257.699C311.09 257.699 310.306 256.995 310.306 256.019C310.306 255.027 311.09 254.323 312.21 254.323C313.058 254.323 313.874 254.643 314.338 255.283V256.739C313.874 257.379 313.058 257.699 312.21 257.699ZM319.144 256.275V252.771C319.56 252.099 320.504 251.523 321.448 251.523C323.016 251.523 323.944 252.803 323.944 254.515C323.944 256.227 323.016 257.491 321.448 257.491C320.504 257.491 319.56 256.947 319.144 256.275ZM319.144 258.371V257.219C319.72 258.003 320.664 258.563 321.752 258.563C323.768 258.563 325.192 257.027 325.192 254.515C325.192 252.051 323.768 250.451 321.752 250.451C320.696 250.451 319.768 250.963 319.144 251.811V247.699H317.944V258.371H319.144ZM326.715 261.395C326.939 261.459 327.339 261.507 327.595 261.507C328.619 261.491 329.403 261.059 329.867 259.939L333.739 250.643H332.427L329.867 256.979L327.291 250.643H325.995L329.227 258.451L328.715 259.619C328.443 260.259 328.091 260.435 327.563 260.435C327.371 260.435 327.083 260.387 326.907 260.307L326.715 261.395ZM336.943 258.563C337.647 258.563 338.079 258.355 338.383 258.067L338.031 257.171C337.871 257.347 337.551 257.491 337.215 257.491C336.687 257.491 336.431 257.075 336.431 256.499V251.699H337.999V250.643H336.431V248.531H335.231V250.643H333.951V251.699H335.231V256.755C335.231 257.907 335.807 258.563 336.943 258.563ZM343.182 258.563C344.446 258.563 345.486 258.147 346.254 257.379L345.678 256.595C345.07 257.219 344.174 257.571 343.294 257.571C341.63 257.571 340.606 256.355 340.51 254.899H346.766V254.595C346.766 252.275 345.39 250.451 343.054 250.451C340.846 250.451 339.246 252.259 339.246 254.499C339.246 256.915 340.894 258.563 343.182 258.563ZM345.582 254.019H340.51C340.574 252.835 341.39 251.443 343.038 251.443C344.798 251.443 345.566 252.867 345.582 254.019ZM351.157 258.563C353.157 258.563 354.197 257.523 354.197 256.227C354.197 253.219 349.413 254.339 349.413 252.643C349.413 251.955 350.069 251.427 351.125 251.427C352.117 251.427 352.965 251.843 353.429 252.403L353.989 251.571C353.365 250.947 352.437 250.451 351.125 250.451C349.285 250.451 348.245 251.475 348.245 252.675C348.245 255.539 353.029 254.387 353.029 256.259C353.029 257.027 352.389 257.587 351.205 257.587C350.149 257.587 349.173 257.075 348.661 256.483L348.037 257.347C348.821 258.179 349.893 258.563 351.157 258.563Z" fill="#25374B"/>
<path d="M257.034 171.426V165.842C257.034 164.29 256.282 163.506 254.874 163.506C253.754 163.506 252.714 164.242 252.282 164.946C252.058 164.146 251.386 163.506 250.202 163.506C249.066 163.506 248.026 164.322 247.706 164.818V163.698H246.506V171.426H247.706V165.778C248.122 165.154 248.954 164.578 249.738 164.578C250.746 164.578 251.162 165.202 251.162 166.178V171.426H252.362V165.762C252.762 165.154 253.61 164.578 254.41 164.578C255.402 164.578 255.834 165.202 255.834 166.178V171.426H257.034ZM262.916 171.618C264.18 171.618 265.22 171.202 265.988 170.434L265.412 169.65C264.804 170.274 263.908 170.626 263.028 170.626C261.364 170.626 260.34 169.41 260.244 167.954H266.5V167.65C266.5 165.33 265.124 163.506 262.788 163.506C260.58 163.506 258.98 165.314 258.98 167.554C258.98 169.97 260.628 171.618 262.916 171.618ZM265.316 167.074H260.244C260.308 165.89 261.124 164.498 262.772 164.498C264.532 164.498 265.3 165.922 265.316 167.074ZM271.548 174.562C273.436 174.562 275.228 173.762 275.228 171.202V163.698H274.028V164.866C273.404 164.018 272.476 163.506 271.436 163.506C269.404 163.506 267.996 165.042 267.996 167.522C267.996 170.018 269.42 171.522 271.436 171.522C272.524 171.522 273.468 170.93 274.028 170.146V171.25C274.028 172.946 272.828 173.57 271.548 173.57C270.444 173.57 269.676 173.282 269.036 172.514L268.428 173.41C269.34 174.306 270.236 174.562 271.548 174.562ZM271.724 170.466C270.172 170.466 269.244 169.218 269.244 167.522C269.244 165.81 270.172 164.578 271.724 164.578C272.684 164.578 273.612 165.154 274.028 165.826V169.202C273.612 169.874 272.684 170.466 271.724 170.466ZM283.663 171.426V166.114C283.663 164.242 282.303 163.506 280.671 163.506C279.407 163.506 278.415 163.922 277.583 164.786L278.143 165.618C278.831 164.882 279.583 164.546 280.511 164.546C281.631 164.546 282.463 165.138 282.463 166.178V167.57C281.839 166.85 280.959 166.514 279.903 166.514C278.591 166.514 277.199 167.33 277.199 169.058C277.199 170.738 278.591 171.618 279.903 171.618C280.943 171.618 281.823 171.25 282.463 170.546V171.426H283.663ZM280.335 170.754C279.215 170.754 278.431 170.05 278.431 169.074C278.431 168.082 279.215 167.378 280.335 167.378C281.183 167.378 281.999 167.698 282.463 168.338V169.794C281.999 170.434 281.183 170.754 280.335 170.754ZM287.269 169.33V165.826C287.685 165.154 288.629 164.578 289.573 164.578C291.141 164.578 292.069 165.858 292.069 167.57C292.069 169.282 291.141 170.546 289.573 170.546C288.629 170.546 287.685 170.002 287.269 169.33ZM287.269 171.426V170.274C287.845 171.058 288.789 171.618 289.877 171.618C291.893 171.618 293.317 170.082 293.317 167.57C293.317 165.106 291.893 163.506 289.877 163.506C288.821 163.506 287.893 164.018 287.269 164.866V160.754H286.069V171.426H287.269ZM294.84 174.45C295.064 174.514 295.464 174.562 295.72 174.562C296.744 174.546 297.528 174.114 297.992 172.994L301.864 163.698H300.552L297.992 170.034L295.416 163.698H294.12L297.352 171.506L296.84 172.674C296.568 173.314 296.216 173.49 295.688 173.49C295.496 173.49 295.208 173.442 295.032 173.362L294.84 174.45ZM305.067 171.618C305.771 171.618 306.203 171.41 306.507 171.122L306.155 170.226C305.995 170.402 305.675 170.546 305.339 170.546C304.811 170.546 304.555 170.13 304.555 169.554V164.754H306.123V163.698H304.555V161.586H303.355V163.698H302.075V164.754H303.355V169.81C303.355 170.962 303.931 171.618 305.067 171.618ZM311.307 171.618C312.571 171.618 313.611 171.202 314.379 170.434L313.803 169.65C313.195 170.274 312.299 170.626 311.419 170.626C309.755 170.626 308.731 169.41 308.635 167.954H314.891V167.65C314.891 165.33 313.515 163.506 311.179 163.506C308.971 163.506 307.371 165.314 307.371 167.554C307.371 169.97 309.019 171.618 311.307 171.618ZM313.707 167.074H308.635C308.699 165.89 309.515 164.498 311.163 164.498C312.923 164.498 313.691 165.922 313.707 167.074ZM323.439 174.05C322.415 172.034 321.775 170.194 321.775 167.538C321.775 164.866 322.415 163.042 323.439 161.01L322.719 160.466C321.279 162.45 320.463 164.962 320.463 167.538C320.463 170.114 321.279 172.642 322.719 174.61L323.439 174.05ZM335.424 171.426V160.754H333.52L330.192 168.786L326.88 160.754H324.976V171.426H326.304V162.642L329.92 171.426H330.464L334.096 162.642V171.426H335.424ZM342.777 171.426C344.729 171.426 345.865 170.258 345.865 168.546C345.865 167.266 344.921 166.098 343.785 165.922C344.761 165.714 345.657 164.818 345.657 163.474C345.657 161.874 344.521 160.754 342.665 160.754H337.913V171.426H342.777ZM342.441 165.378H339.241V161.938H342.441C343.641 161.938 344.281 162.706 344.281 163.666C344.281 164.642 343.641 165.378 342.441 165.378ZM342.505 170.242H339.241V166.562H342.505C343.817 166.562 344.489 167.426 344.489 168.402C344.489 169.538 343.753 170.242 342.505 170.242ZM347.72 174.61C349.176 172.642 349.992 170.114 349.992 167.538C349.992 164.962 349.176 162.45 347.72 160.466L347 161.01C348.04 163.042 348.68 164.866 348.68 167.538C348.68 170.194 348.04 172.034 347 174.05L347.72 174.61ZM255.212 191.426C255.031 191.394 254.183 191.378 252.668 191.378C251.175 191.378 250.337 191.394 250.156 191.426H249.964V190.69H250.38C250.999 190.69 251.399 190.674 251.58 190.642C251.665 190.631 251.793 190.567 251.964 190.45V182.178C251.943 182.178 251.9 182.194 251.836 182.226C251.345 182.418 250.796 182.519 250.188 182.53H249.884V181.794H250.188C251.084 181.762 251.831 181.559 252.428 181.186C252.62 181.079 252.785 180.956 252.924 180.818C252.945 180.786 253.009 180.77 253.116 180.77C253.223 180.77 253.313 180.802 253.388 180.866V185.65L253.404 190.45C253.564 190.61 253.911 190.69 254.444 190.69H254.972H255.388V191.426H255.212ZM258.092 182.066C258.689 181.202 259.505 180.77 260.54 180.77C261.319 180.77 262.001 181.036 262.588 181.57C262.876 181.847 263.121 182.21 263.324 182.658C263.719 183.543 263.916 184.759 263.916 186.306C263.916 187.959 263.687 189.223 263.228 190.098C262.929 190.716 262.492 191.164 261.916 191.442C261.468 191.666 261.015 191.778 260.556 191.778C259.329 191.778 258.433 191.218 257.868 190.098C257.409 189.223 257.18 187.959 257.18 186.306C257.18 185.314 257.244 184.498 257.372 183.858C257.511 183.207 257.751 182.61 258.092 182.066ZM261.692 181.874C261.383 181.532 261.004 181.362 260.556 181.362C260.108 181.362 259.724 181.532 259.404 181.874C259.169 182.119 259.009 182.418 258.924 182.77C258.839 183.122 258.785 183.73 258.764 184.594C258.764 184.658 258.759 184.866 258.748 185.218C258.748 185.57 258.748 185.863 258.748 186.098C258.748 187.122 258.759 187.836 258.78 188.242C258.823 188.988 258.887 189.527 258.972 189.858C259.057 190.178 259.217 190.455 259.452 190.69C259.74 191.01 260.108 191.17 260.556 191.17C260.993 191.17 261.356 191.01 261.644 190.69C261.879 190.455 262.039 190.178 262.124 189.858C262.209 189.527 262.273 188.988 262.316 188.242C262.337 187.836 262.348 187.122 262.348 186.098C262.348 185.863 262.343 185.57 262.332 185.218C262.332 184.866 262.332 184.658 262.332 184.594C262.311 183.73 262.257 183.122 262.172 182.77C262.087 182.418 261.927 182.119 261.692 181.874ZM266.092 182.066C266.689 181.202 267.505 180.77 268.54 180.77C269.319 180.77 270.001 181.036 270.588 181.57C270.876 181.847 271.121 182.21 271.324 182.658C271.719 183.543 271.916 184.759 271.916 186.306C271.916 187.959 271.687 189.223 271.228 190.098C270.929 190.716 270.492 191.164 269.916 191.442C269.468 191.666 269.015 191.778 268.556 191.778C267.329 191.778 266.433 191.218 265.868 190.098C265.409 189.223 265.18 187.959 265.18 186.306C265.18 185.314 265.244 184.498 265.372 183.858C265.511 183.207 265.751 182.61 266.092 182.066ZM269.692 181.874C269.383 181.532 269.004 181.362 268.556 181.362C268.108 181.362 267.724 181.532 267.404 181.874C267.169 182.119 267.009 182.418 266.924 182.77C266.839 183.122 266.785 183.73 266.764 184.594C266.764 184.658 266.759 184.866 266.748 185.218C266.748 185.57 266.748 185.863 266.748 186.098C266.748 187.122 266.759 187.836 266.78 188.242C266.823 188.988 266.887 189.527 266.972 189.858C267.057 190.178 267.217 190.455 267.452 190.69C267.74 191.01 268.108 191.17 268.556 191.17C268.993 191.17 269.356 191.01 269.644 190.69C269.879 190.455 270.039 190.178 270.124 189.858C270.209 189.527 270.273 188.988 270.316 188.242C270.337 187.836 270.348 187.122 270.348 186.098C270.348 185.863 270.343 185.57 270.332 185.218C270.332 184.866 270.332 184.658 270.332 184.594C270.311 183.73 270.257 183.122 270.172 182.77C270.087 182.418 269.927 182.119 269.692 181.874ZM274.092 182.066C274.689 181.202 275.505 180.77 276.54 180.77C277.319 180.77 278.001 181.036 278.588 181.57C278.876 181.847 279.121 182.21 279.324 182.658C279.719 183.543 279.916 184.759 279.916 186.306C279.916 187.959 279.687 189.223 279.228 190.098C278.929 190.716 278.492 191.164 277.916 191.442C277.468 191.666 277.015 191.778 276.556 191.778C275.329 191.778 274.433 191.218 273.868 190.098C273.409 189.223 273.18 187.959 273.18 186.306C273.18 185.314 273.244 184.498 273.372 183.858C273.511 183.207 273.751 182.61 274.092 182.066ZM277.692 181.874C277.383 181.532 277.004 181.362 276.556 181.362C276.108 181.362 275.724 181.532 275.404 181.874C275.169 182.119 275.009 182.418 274.924 182.77C274.839 183.122 274.785 183.73 274.764 184.594C274.764 184.658 274.759 184.866 274.748 185.218C274.748 185.57 274.748 185.863 274.748 186.098C274.748 187.122 274.759 187.836 274.78 188.242C274.823 188.988 274.887 189.527 274.972 189.858C275.057 190.178 275.217 190.455 275.452 190.69C275.74 191.01 276.108 191.17 276.556 191.17C276.993 191.17 277.356 191.01 277.644 190.69C277.879 190.455 278.039 190.178 278.124 189.858C278.209 189.527 278.273 188.988 278.316 188.242C278.337 187.836 278.348 187.122 278.348 186.098C278.348 185.863 278.343 185.57 278.332 185.218C278.332 184.866 278.332 184.658 278.332 184.594C278.311 183.73 278.257 183.122 278.172 182.77C278.087 182.418 277.927 182.119 277.692 181.874ZM292.681 191.426L289.241 187.202L292.665 183.698H291.145L287.081 187.81V180.754H285.881V191.426H287.081V189.218L288.361 187.954L291.145 191.426H292.681ZM294.692 182.594C295.14 182.594 295.508 182.242 295.508 181.794C295.508 181.346 295.14 180.978 294.692 180.978C294.26 180.978 293.892 181.346 293.892 181.794C293.892 182.242 294.26 182.594 294.692 182.594ZM295.3 191.426V183.698H294.1V191.426H295.3ZM298.894 191.426V180.754H297.694V191.426H298.894ZM304.663 191.618C307.015 191.618 308.487 189.794 308.487 187.554C308.487 185.314 307.015 183.506 304.663 183.506C302.311 183.506 300.839 185.314 300.839 187.554C300.839 189.794 302.311 191.618 304.663 191.618ZM304.663 190.546C303.015 190.546 302.087 189.138 302.087 187.554C302.087 185.986 303.015 184.578 304.663 184.578C306.311 184.578 307.223 185.986 307.223 187.554C307.223 189.138 306.311 190.546 304.663 190.546ZM311.644 189.33V185.826C312.06 185.154 313.004 184.578 313.948 184.578C315.516 184.578 316.444 185.858 316.444 187.57C316.444 189.282 315.516 190.546 313.948 190.546C313.004 190.546 312.06 190.002 311.644 189.33ZM311.644 191.426V190.274C312.22 191.058 313.164 191.618 314.252 191.618C316.268 191.618 317.692 190.082 317.692 187.57C317.692 185.106 316.268 183.506 314.252 183.506C313.196 183.506 312.268 184.018 311.644 184.866V180.754H310.444V191.426H311.644ZM319.215 194.45C319.439 194.514 319.839 194.562 320.095 194.562C321.119 194.546 321.903 194.114 322.367 192.994L326.239 183.698H324.927L322.367 190.034L319.791 183.698H318.495L321.727 191.506L321.215 192.674C320.943 193.314 320.591 193.49 320.063 193.49C319.871 193.49 319.583 193.442 319.407 193.362L319.215 194.45ZM329.442 191.618C330.146 191.618 330.578 191.41 330.882 191.122L330.53 190.226C330.37 190.402 330.05 190.546 329.714 190.546C329.186 190.546 328.93 190.13 328.93 189.554V184.754H330.498V183.698H328.93V181.586H327.73V183.698H326.45V184.754H327.73V189.81C327.73 190.962 328.306 191.618 329.442 191.618ZM335.682 191.618C336.946 191.618 337.986 191.202 338.754 190.434L338.178 189.65C337.57 190.274 336.674 190.626 335.794 190.626C334.13 190.626 333.106 189.41 333.01 187.954H339.266V187.65C339.266 185.33 337.89 183.506 335.554 183.506C333.346 183.506 331.746 185.314 331.746 187.554C331.746 189.97 333.394 191.618 335.682 191.618ZM338.082 187.074H333.01C333.074 185.89 333.89 184.498 335.538 184.498C337.298 184.498 338.066 185.922 338.082 187.074ZM343.657 191.618C345.657 191.618 346.697 190.578 346.697 189.282C346.697 186.274 341.913 187.394 341.913 185.698C341.913 185.01 342.569 184.482 343.625 184.482C344.617 184.482 345.465 184.898 345.929 185.458L346.489 184.626C345.865 184.002 344.937 183.506 343.625 183.506C341.785 183.506 340.745 184.53 340.745 185.73C340.745 188.594 345.529 187.442 345.529 189.314C345.529 190.082 344.889 190.642 343.705 190.642C342.649 190.642 341.673 190.13 341.161 189.538L340.537 190.402C341.321 191.234 342.393 191.618 343.657 191.618Z" fill="#25374B"/>
<path d="M263.162 109.555L259.722 105.331L263.146 101.827H261.626L257.562 105.939V98.8827H256.362V109.555H257.562V107.347L258.842 106.083L261.626 109.555H263.162ZM265.173 100.723C265.621 100.723 265.989 100.371 265.989 99.9227C265.989 99.4747 265.621 99.1067 265.173 99.1067C264.741 99.1067 264.373 99.4747 264.373 99.9227C264.373 100.371 264.741 100.723 265.173 100.723ZM265.781 109.555V101.827H264.581V109.555H265.781ZM269.375 109.555V98.8827H268.175V109.555H269.375ZM275.144 109.747C277.496 109.747 278.968 107.923 278.968 105.683C278.968 103.443 277.496 101.635 275.144 101.635C272.792 101.635 271.32 103.443 271.32 105.683C271.32 107.923 272.792 109.747 275.144 109.747ZM275.144 108.675C273.496 108.675 272.568 107.267 272.568 105.683C272.568 104.115 273.496 102.707 275.144 102.707C276.792 102.707 277.704 104.115 277.704 105.683C277.704 107.267 276.792 108.675 275.144 108.675ZM282.125 107.459V103.955C282.541 103.283 283.485 102.707 284.429 102.707C285.997 102.707 286.925 103.987 286.925 105.699C286.925 107.411 285.997 108.675 284.429 108.675C283.485 108.675 282.541 108.131 282.125 107.459ZM282.125 109.555V108.403C282.701 109.187 283.645 109.747 284.733 109.747C286.749 109.747 288.173 108.211 288.173 105.699C288.173 103.235 286.749 101.635 284.733 101.635C283.677 101.635 282.749 102.147 282.125 102.995V98.8827H280.925V109.555H282.125ZM289.696 112.579C289.92 112.643 290.32 112.691 290.576 112.691C291.6 112.675 292.384 112.243 292.848 111.123L296.72 101.827H295.408L292.848 108.163L290.272 101.827H288.976L292.208 109.635L291.696 110.803C291.424 111.443 291.072 111.619 290.544 111.619C290.352 111.619 290.064 111.571 289.888 111.491L289.696 112.579ZM299.924 109.747C300.628 109.747 301.06 109.539 301.364 109.251L301.012 108.355C300.852 108.531 300.532 108.675 300.196 108.675C299.668 108.675 299.412 108.259 299.412 107.683V102.883H300.98V101.827H299.412V99.7147H298.212V101.827H296.932V102.883H298.212V107.939C298.212 109.091 298.788 109.747 299.924 109.747ZM306.163 109.747C307.427 109.747 308.467 109.331 309.235 108.563L308.659 107.779C308.051 108.403 307.155 108.755 306.275 108.755C304.611 108.755 303.587 107.539 303.491 106.083H309.747V105.779C309.747 103.459 308.371 101.635 306.035 101.635C303.827 101.635 302.227 103.443 302.227 105.683C302.227 108.099 303.875 109.747 306.163 109.747ZM308.563 105.203H303.491C303.555 104.019 304.371 102.627 306.019 102.627C307.779 102.627 308.547 104.051 308.563 105.203ZM318.295 112.179C317.271 110.163 316.631 108.323 316.631 105.667C316.631 102.995 317.271 101.171 318.295 99.1387L317.575 98.5947C316.135 100.579 315.319 103.091 315.319 105.667C315.319 108.243 316.135 110.771 317.575 112.739L318.295 112.179ZM326.584 109.555L323.144 105.331L326.568 101.827H325.048L320.984 105.939V98.8827H319.784V109.555H320.984V107.347L322.264 106.083L325.048 109.555H326.584ZM332.915 109.555C334.867 109.555 336.003 108.387 336.003 106.675C336.003 105.395 335.059 104.227 333.923 104.051C334.899 103.843 335.795 102.947 335.795 101.603C335.795 100.003 334.659 98.8827 332.803 98.8827H328.051V109.555H332.915ZM332.579 103.507H329.379V100.067H332.579C333.779 100.067 334.419 100.835 334.419 101.795C334.419 102.771 333.779 103.507 332.579 103.507ZM332.643 108.371H329.379V104.691H332.643C333.955 104.691 334.627 105.555 334.627 106.531C334.627 107.667 333.891 108.371 332.643 108.371ZM337.857 112.739C339.313 110.771 340.129 108.243 340.129 105.667C340.129 103.091 339.313 100.579 337.857 98.5947L337.137 99.1387C338.177 101.171 338.817 102.995 338.817 105.667C338.817 108.323 338.177 110.163 337.137 112.179L337.857 112.739ZM267.49 129.555C267.309 129.523 266.461 129.507 264.946 129.507C263.453 129.507 262.615 129.523 262.434 129.555H262.242V128.819H262.658C263.277 128.819 263.677 128.803 263.858 128.771C263.943 128.76 264.071 128.696 264.242 128.579V120.307C264.221 120.307 264.178 120.323 264.114 120.355C263.623 120.547 263.074 120.648 262.466 120.659H262.162V119.923H262.466C263.362 119.891 264.109 119.688 264.706 119.315C264.898 119.208 265.063 119.085 265.202 118.947C265.223 118.915 265.287 118.899 265.394 118.899C265.501 118.899 265.591 118.931 265.666 118.995V123.779L265.682 128.579C265.842 128.739 266.189 128.819 266.722 128.819H267.25H267.666V129.555H267.49ZM270.37 120.195C270.967 119.331 271.783 118.899 272.818 118.899C273.597 118.899 274.279 119.165 274.866 119.699C275.154 119.976 275.399 120.339 275.602 120.787C275.997 121.672 276.194 122.888 276.194 124.435C276.194 126.088 275.965 127.352 275.506 128.227C275.207 128.845 274.77 129.293 274.194 129.571C273.746 129.795 273.293 129.907 272.834 129.907C271.607 129.907 270.711 129.347 270.146 128.227C269.687 127.352 269.458 126.088 269.458 124.435C269.458 123.443 269.522 122.627 269.65 121.987C269.789 121.336 270.029 120.739 270.37 120.195ZM273.97 120.003C273.661 119.661 273.282 119.491 272.834 119.491C272.386 119.491 272.002 119.661 271.682 120.003C271.447 120.248 271.287 120.547 271.202 120.899C271.117 121.251 271.063 121.859 271.042 122.723C271.042 122.787 271.037 122.995 271.026 123.347C271.026 123.699 271.026 123.992 271.026 124.227C271.026 125.251 271.037 125.965 271.058 126.371C271.101 127.117 271.165 127.656 271.25 127.987C271.335 128.307 271.495 128.584 271.73 128.819C272.018 129.139 272.386 129.299 272.834 129.299C273.271 129.299 273.634 129.139 273.922 128.819C274.157 128.584 274.317 128.307 274.402 127.987C274.487 127.656 274.551 127.117 274.594 126.371C274.615 125.965 274.626 125.251 274.626 124.227C274.626 123.992 274.621 123.699 274.61 123.347C274.61 122.995 274.61 122.787 274.61 122.723C274.589 121.859 274.535 121.251 274.45 120.899C274.365 120.547 274.205 120.248 273.97 120.003ZM278.37 120.195C278.967 119.331 279.783 118.899 280.818 118.899C281.597 118.899 282.279 119.165 282.866 119.699C283.154 119.976 283.399 120.339 283.602 120.787C283.997 121.672 284.194 122.888 284.194 124.435C284.194 126.088 283.965 127.352 283.506 128.227C283.207 128.845 282.77 129.293 282.194 129.571C281.746 129.795 281.293 129.907 280.834 129.907C279.607 129.907 278.711 129.347 278.146 128.227C277.687 127.352 277.458 126.088 277.458 124.435C277.458 123.443 277.522 122.627 277.65 121.987C277.789 121.336 278.029 120.739 278.37 120.195ZM281.97 120.003C281.661 119.661 281.282 119.491 280.834 119.491C280.386 119.491 280.002 119.661 279.682 120.003C279.447 120.248 279.287 120.547 279.202 120.899C279.117 121.251 279.063 121.859 279.042 122.723C279.042 122.787 279.037 122.995 279.026 123.347C279.026 123.699 279.026 123.992 279.026 124.227C279.026 125.251 279.037 125.965 279.058 126.371C279.101 127.117 279.165 127.656 279.25 127.987C279.335 128.307 279.495 128.584 279.73 128.819C280.018 129.139 280.386 129.299 280.834 129.299C281.271 129.299 281.634 129.139 281.922 128.819C282.157 128.584 282.317 128.307 282.402 127.987C282.487 127.656 282.551 127.117 282.594 126.371C282.615 125.965 282.626 125.251 282.626 124.227C282.626 123.992 282.621 123.699 282.61 123.347C282.61 122.995 282.61 122.787 282.61 122.723C282.589 121.859 282.535 121.251 282.45 120.899C282.365 120.547 282.205 120.248 281.97 120.003ZM286.37 120.195C286.967 119.331 287.783 118.899 288.818 118.899C289.597 118.899 290.279 119.165 290.866 119.699C291.154 119.976 291.399 120.339 291.602 120.787C291.997 121.672 292.194 122.888 292.194 124.435C292.194 126.088 291.965 127.352 291.506 128.227C291.207 128.845 290.77 129.293 290.194 129.571C289.746 129.795 289.293 129.907 288.834 129.907C287.607 129.907 286.711 129.347 286.146 128.227C285.687 127.352 285.458 126.088 285.458 124.435C285.458 123.443 285.522 122.627 285.65 121.987C285.789 121.336 286.029 120.739 286.37 120.195ZM289.97 120.003C289.661 119.661 289.282 119.491 288.834 119.491C288.386 119.491 288.002 119.661 287.682 120.003C287.447 120.248 287.287 120.547 287.202 120.899C287.117 121.251 287.063 121.859 287.042 122.723C287.042 122.787 287.037 122.995 287.026 123.347C287.026 123.699 287.026 123.992 287.026 124.227C287.026 125.251 287.037 125.965 287.058 126.371C287.101 127.117 287.165 127.656 287.25 127.987C287.335 128.307 287.495 128.584 287.73 128.819C288.018 129.139 288.386 129.299 288.834 129.299C289.271 129.299 289.634 129.139 289.922 128.819C290.157 128.584 290.317 128.307 290.402 127.987C290.487 127.656 290.551 127.117 290.594 126.371C290.615 125.965 290.626 125.251 290.626 124.227C290.626 123.992 290.621 123.699 290.61 123.347C290.61 122.995 290.61 122.787 290.61 122.723C290.589 121.859 290.535 121.251 290.45 120.899C290.365 120.547 290.205 120.248 289.97 120.003ZM299.359 127.459V123.955C299.775 123.283 300.719 122.707 301.663 122.707C303.231 122.707 304.159 123.987 304.159 125.699C304.159 127.411 303.231 128.675 301.663 128.675C300.719 128.675 299.775 128.131 299.359 127.459ZM299.359 129.555V128.403C299.935 129.187 300.879 129.747 301.967 129.747C303.983 129.747 305.407 128.211 305.407 125.699C305.407 123.235 303.983 121.635 301.967 121.635C300.911 121.635 299.983 122.147 299.359 122.995V118.883H298.159V129.555H299.359ZM306.93 132.579C307.154 132.643 307.554 132.691 307.81 132.691C308.834 132.675 309.618 132.243 310.082 131.123L313.954 121.827H312.642L310.082 128.163L307.506 121.827H306.21L309.442 129.635L308.93 130.803C308.658 131.443 308.306 131.619 307.778 131.619C307.586 131.619 307.298 131.571 307.122 131.491L306.93 132.579ZM317.158 129.747C317.862 129.747 318.294 129.539 318.598 129.251L318.246 128.355C318.086 128.531 317.766 128.675 317.43 128.675C316.902 128.675 316.646 128.259 316.646 127.683V122.883H318.214V121.827H316.646V119.715H315.446V121.827H314.166V122.883H315.446V127.939C315.446 129.091 316.022 129.747 317.158 129.747ZM323.397 129.747C324.661 129.747 325.701 129.331 326.469 128.563L325.893 127.779C325.285 128.403 324.389 128.755 323.509 128.755C321.845 128.755 320.821 127.539 320.725 126.083H326.981V125.779C326.981 123.459 325.605 121.635 323.269 121.635C321.061 121.635 319.461 123.443 319.461 125.683C319.461 128.099 321.109 129.747 323.397 129.747ZM325.797 125.203H320.725C320.789 124.019 321.605 122.627 323.253 122.627C325.013 122.627 325.781 124.051 325.797 125.203ZM331.373 129.747C333.373 129.747 334.413 128.707 334.413 127.411C334.413 124.403 329.629 125.523 329.629 123.827C329.629 123.139 330.285 122.611 331.341 122.611C332.333 122.611 333.181 123.027 333.645 123.587L334.205 122.755C333.581 122.131 332.653 121.635 331.341 121.635C329.501 121.635 328.461 122.659 328.461 123.859C328.461 126.723 333.245 125.571 333.245 127.443C333.245 128.211 332.605 128.771 331.421 128.771C330.365 128.771 329.389 128.259 328.877 127.667L328.253 128.531C329.037 129.363 330.109 129.747 331.373 129.747Z" fill="#25374B"/>
<path d="M285.653 51.9919V48.4879C286.069 47.8159 287.013 47.2399 287.973 47.2399C289.525 47.2399 290.453 48.5199 290.453 50.2319C290.453 51.9439 289.525 53.2079 287.973 53.2079C287.013 53.2079 286.069 52.6639 285.653 51.9919ZM285.653 54.0879V52.9359C286.229 53.7199 287.173 54.2799 288.261 54.2799C290.277 54.2799 291.701 52.7439 291.701 50.2319C291.701 47.7519 290.293 46.1679 288.261 46.1679C287.221 46.1679 286.277 46.6799 285.653 47.5279V43.4159H284.453V54.0879H285.653ZM293.24 57.1119C293.448 57.1759 293.848 57.2239 294.104 57.2239C295.128 57.2079 295.912 56.7759 296.376 55.6559L300.248 46.3599H298.952L296.376 52.6959L293.816 46.3599H292.504L295.736 54.1679L295.224 55.3359C294.952 55.9759 294.6 56.1519 294.072 56.1519C293.88 56.1519 293.592 56.1039 293.416 56.0239L293.24 57.1119ZM303.467 54.2799C304.155 54.2799 304.587 54.0719 304.891 53.7839L304.539 52.8719C304.379 53.0479 304.075 53.2079 303.723 53.2079C303.211 53.2079 302.955 52.7919 302.955 52.2159V47.4159H304.523V46.3599H302.955V44.2479H301.739V46.3599H300.459V47.4159H301.739V52.4719C301.739 53.6239 302.315 54.2799 303.467 54.2799ZM309.707 54.2799C310.955 54.2799 311.995 53.8479 312.779 53.0799L312.203 52.2959C311.579 52.9359 310.699 53.2879 309.803 53.2879C308.139 53.2879 307.131 52.0719 307.035 50.6159H313.275V50.3119C313.275 47.9919 311.899 46.1679 309.563 46.1679C307.355 46.1679 305.755 47.9759 305.755 50.2159C305.755 52.6319 307.403 54.2799 309.707 54.2799ZM312.091 49.7199H307.019C307.083 48.5519 307.899 47.1599 309.547 47.1599C311.307 47.1599 312.075 48.5839 312.091 49.7199ZM293.331 72.7119C292.291 70.6959 291.651 68.8559 291.651 66.1999C291.651 63.5279 292.291 61.7039 293.331 59.6719L292.595 59.1279C291.155 61.1119 290.339 63.6239 290.339 66.1999C290.339 68.7759 291.155 71.2879 292.595 73.2719L293.331 72.7119ZM299.716 70.0879C301.668 70.0879 302.804 68.9199 302.804 67.2079C302.804 65.9279 301.86 64.7599 300.724 64.5839C301.7 64.3759 302.596 63.4799 302.596 62.1359C302.596 60.5359 301.46 59.4159 299.604 59.4159H294.852V70.0879H299.716ZM299.38 64.0399H296.18V60.5999H299.38C300.58 60.5999 301.22 61.3679 301.22 62.3279C301.22 63.3039 300.58 64.0399 299.38 64.0399ZM299.46 68.9039H296.18V65.2239H299.46C300.756 65.2239 301.428 66.0879 301.428 67.0639C301.428 68.1999 300.692 68.9039 299.46 68.9039ZM303.939 72.7119C304.979 70.6959 305.619 68.8559 305.619 66.1999C305.619 63.5279 304.979 61.7039 303.939 59.6719L304.675 59.1279C306.115 61.1119 306.931 63.6239 306.931 66.1999C306.931 68.7759 306.115 71.2879 304.675 73.2719L303.939 72.7119Z" fill="#25374B"/>
</g>
</g>
<defs>
<clipPath id="clip0_3021_4549">
<rect width="596" height="360" fill="white"/>
</clipPath>
</defs>
</svg>
